PathFileType	4	(X/Y/Z)	./trials/Ivanov/data/jump_js_1.trc
DataRate	CameraRate	NumFrames	NumMarkers	Units	OrigDataRate	OrigDataStartFrame	OrigNumFrames
400	400	4	71	mm	400	319	364
Frame#	Time	r_illiac			r_troch			r_asis			l_illiac			l_troch			l_asis			r_psis			sacrum			l_psis			r_thigh1			r_thigh2			r_thigh3			r_thigh4			rl_knee			rm_knee			r_shank1			r_shank2			r_shank3			r_shank4			r_heel			rl_ankle			rm_ankle			r_metatarsal5			r_metatarsal1			l_thigh1			l_thigh2			l_thigh3			l_thigh4			ll_knee			lm_knee			l_shank1			l_shank2			l_shank3			l_shank4			l_heel			ll_ankle			lm_ankle			l_metatarsal5			l_metatarsal1			back_down			neck			back_right			back_left			head_up			head_front			head_left			head_right			r_shoulder			r_humerus1			r_humerus2			r_humerus3			rl_elbow			rm_elbow			r_radius1			r_radius2			r_radius3			rl_wrist			rm_wrist			r_hand			l_shoulder			l_humerus1			l_humerus2			l_humerus3			ll_elbow			lm_elbow			l_radius1			l_radius2			l_radius3			ll_wrist			lm_wrist			l_hand		
		X1	Y1	Z1	X2	Y2	Z2	X3	Y3	Z3	X4	Y4	Z4	X5	Y5	Z5	X6	Y6	Z6	X7	Y7	Z7	X8	Y8	Z8	X9	Y9	Z9	X10	Y10	Z10	X11	Y11	Z11	X12	Y12	Z12	X13	Y13	Z13	X14	Y14	Z14	X15	Y15	Z15	X16	Y16	Z16	X17	Y17	Z17	X18	Y18	Z18	X19	Y19	Z19	X20	Y20	Z20	X21	Y21	Z21	X22	Y22	Z22	X23	Y23	Z23	X24	Y24	Z24	X25	Y25	Z25	X26	Y26	Z26	X27	Y27	Z27	X28	Y28	Z28	X29	Y29	Z29	X30	Y30	Z30	X31	Y31	Z31	X32	Y32	Z32	X33	Y33	Z33	X34	Y34	Z34	X35	Y35	Z35	X36	Y36	Z36	X37	Y37	Z37	X38	Y38	Z38	X39	Y39	Z39	X40	Y40	Z40	X41	Y41	Z41	X42	Y42	Z42	X43	Y43	Z43	X44	Y44	Z44	X45	Y45	Z45	X46	Y46	Z46	X47	Y47	Z47	X48	Y48	Z48	X49	Y49	Z49	X50	Y50	Z50	X51	Y51	Z51	X52	Y52	Z52	X53	Y53	Z53	X54	Y54	Z54	X55	Y55	Z55	X56	Y56	Z56	X57	Y57	Z57	X58	Y58	Z58	X59	Y59	Z59	X60	Y60	Z60	X61	Y61	Z61	X62	Y62	Z62	X63	Y63	Z63	X64	Y64	Z64	X65	Y65	Z65	X66	Y66	Z66	X67	Y67	Z67	X68	Y68	Z68	X69	Y69	Z69	X70	Y70	Z70	X71	Y71	Z71
319	0.7950	-221.591	1556.548	534.639	-254.989	1368.794	543.070	-142.313	1510.377	499.882	-233.971	1554.992	207.466	-253.817	1396.058	194.994	-162.202	1502.531	233.766	-336.839	1515.051	430.299	-337.834	1548.935	373.085	-345.574	1513.683	320.773	-260.175	1245.017	537.933	-194.733	1263.855	572.877	-175.468	1140.585	581.145	-231.997	1124.695	548.330	-164.564	964.834	557.466	-120.065	947.905	430.144	-236.566	836.680	535.261	-170.218	837.352	563.460	-178.186	726.679	559.932	-233.830	731.347	534.622	-234.579	535.810	465.407	-215.131	544.738	525.800	-142.866	541.735	458.426	-91.453	421.548	605.435	-43.058	425.769	524.763	-271.911	1228.937	199.656	-199.516	1239.450	175.317	-188.410	1116.725	172.221	-245.400	1105.008	190.843	-227.010	958.812	197.560	-176.755	918.208	314.399	-283.262	808.084	203.226	-204.467	810.330	204.599	-212.120	702.218	206.178	-273.985	699.831	208.800	-310.808	522.783	265.508	-260.460	530.587	218.433	-213.714	538.561	307.794	-127.701	406.935	195.868	-99.675	422.573	269.819	-300.324	1702.168	378.510	-199.167	2020.026	391.128	-262.037	1871.063	479.356	-262.318	1871.918	298.361	-8.840	2227.312	384.793	85.913	2106.796	363.403	-26.758	2123.073	283.030	0.253	2126.800	477.433	-80.751	1993.650	562.849	-88.537	1810.300	656.840	-154.156	1908.589	714.741	-154.226	1806.367	739.386	-177.185	1749.344	773.332	-271.189	1758.406	713.116	-164.479	1666.757	661.668	-202.617	1631.984	782.358	-198.318	1578.004	693.778	-257.864	1550.336	600.563	-201.504	1504.668	660.592	-186.921	1512.770	602.616	-83.744	2027.221	226.550	-73.297	1833.904	139.157	-132.492	1908.320	48.988	-128.569	1805.712	55.141	-160.375	1736.454	3.036	-255.856	1762.885	56.712	-210.188	1702.173	121.422	-141.036	1650.931	34.794	-202.538	1602.058	99.551	-254.438	1537.880	160.802	-233.362	1482.399	91.107	-204.172	1501.835	139.193
320	0.7975	-221.530	1557.643	534.767	-254.641	1369.915	543.257	-142.208	1511.639	500.015	-234.202	1556.065	207.605	-253.765	1397.320	195.133	-162.580	1503.659	234.034	-336.740	1515.959	430.508	-337.866	1549.852	373.362	-345.774	1514.551	321.273	-259.619	1246.034	538.090	-194.139	1264.996	572.994	-174.679	1141.781	581.216	-231.216	1125.748	548.459	-163.692	966.001	557.558	-119.316	949.265	430.106	-235.680	837.873	535.380	-169.233	838.525	563.467	-177.059	727.848	559.840	-232.967	732.446	534.696	-233.746	536.734	465.355	-214.175	545.933	525.636	-142.062	543.112	458.267	-90.119	423.174	605.414	-41.748	427.450	524.671	-271.545	1230.140	199.520	-198.985	1240.867	175.176	-187.658	1118.158	171.862	-244.602	1106.241	190.375	-225.968	960.083	197.101	-175.616	919.497	313.928	-282.083	809.418	202.567	-203.238	811.659	204.043	-210.494	703.896	205.691	-272.750	701.047	208.120	-309.449	524.044	264.944	-259.396	531.926	217.907	-212.325	539.902	307.064	-126.523	408.031	195.196	-98.407	423.817	269.050	-300.267	1703.250	378.567	-198.839	2021.240	391.037	-262.099	1872.839	479.543	-262.238	1873.108	298.333	-7.981	2228.418	384.840	86.354	2107.471	363.385	-26.299	2123.980	283.007	0.706	2127.555	477.327	-80.295	1994.589	562.729	-88.311	1811.126	656.365	-153.063	1909.492	714.869	-153.582	1807.242	739.217	-176.777	1750.356	773.297	-270.883	1759.647	713.354	-164.482	1667.837	661.595	-202.316	1633.107	782.414	-198.253	1579.021	693.808	-258.080	1551.249	600.738	-201.620	1505.750	660.764	-187.007	1514.015	602.846	-83.355	2028.199	226.434	-73.189	1834.689	139.467	-131.443	1909.202	48.846	-128.086	1806.583	55.208	-160.062	1737.397	3.000	-255.626	1764.264	56.512	-210.094	1703.404	121.245	-140.905	1652.009	34.869	-202.495	1603.330	99.646	-254.591	1539.209	160.966	-233.384	1483.648	91.349	-204.175	1503.114	139.395
321	0.8000	-221.439	1558.725	534.841	-254.211	1370.946	543.461	-142.146	1512.923	500.169	-234.445	1557.203	207.783	-253.700	1398.411	195.293	-162.548	1505.025	234.066	-336.774	1516.905	430.856	-337.954	1550.876	373.654	-345.752	1515.680	321.472	-258.975	1247.132	538.243	-193.569	1266.114	573.119	-174.069	1142.988	581.355	-230.567	1126.915	548.583	-162.840	967.196	557.682	-118.768	950.580	430.058	-234.748	839.070	534.996	-168.361	839.617	563.498	-176.230	728.864	559.879	-232.055	733.689	534.769	-232.863	537.550	465.232	-213.249	546.941	525.519	-141.249	544.287	458.113	-88.793	424.785	605.370	-40.541	429.146	524.558	-270.964	1231.264	199.279	-198.398	1242.173	175.014	-186.824	1119.490	171.482	-243.780	1107.402	189.897	-224.879	961.296	196.630	-174.462	920.689	313.390	-280.897	810.680	201.947	-202.037	812.981	203.508	-209.230	705.251	205.054	-271.546	702.442	207.987	-308.128	525.305	264.394	-258.090	533.075	217.194	-210.896	541.137	306.266	-125.432	409.004	194.423	-97.153	424.949	268.229	-300.427	1704.281	378.619	-198.290	2021.919	391.054	-261.693	1873.682	479.182	-262.115	1874.353	298.267	-7.255	2229.187	384.781	86.739	2107.944	363.435	-25.204	2125.165	283.231	1.063	2128.541	477.301	-79.831	1995.411	562.603	-88.115	1811.884	655.921	-152.124	1910.473	715.044	-153.022	1808.103	739.066	-176.310	1751.305	773.254	-270.642	1760.751	713.498	-164.511	1668.867	661.544	-202.007	1634.230	782.486	-198.132	1580.093	693.880	-258.038	1552.428	600.925	-201.578	1506.860	660.897	-187.046	1515.129	603.055	-83.062	2029.199	226.323	-72.977	1835.467	139.771	-130.511	1909.944	48.695	-127.645	1807.455	55.287	-159.752	1738.354	2.963	-255.328	1765.856	56.194	-209.989	1704.636	121.187	-140.727	1653.025	34.933	-202.479	1604.430	99.757	-254.677	1540.548	161.145	-233.432	1484.750	91.574	-204.275	1504.418	139.616
322	0.8025	-221.272	1559.882	535.032	-253.795	1371.951	543.724	-141.976	1514.009	500.233	-234.641	1558.327	207.941	-253.574	1399.568	195.411	-162.666	1506.282	234.262	-336.660	1517.798	431.165	-337.997	1551.821	373.932	-345.111	1515.905	322.263	-258.435	1248.013	538.397	-192.975	1267.164	573.251	-173.326	1143.983	581.441	-229.880	1127.871	548.685	-161.871	968.176	557.810	-118.009	951.845	430.044	-233.888	840.229	535.074	-167.414	840.654	563.520	-175.181	729.923	559.792	-231.273	734.701	534.734	-232.037	538.336	465.142	-212.276	547.986	525.405	-140.451	545.437	457.966	-87.467	426.274	605.229	-39.221	430.838	524.446	-270.412	1232.264	199.029	-197.811	1243.443	174.871	-185.990	1120.743	171.189	-242.958	1108.565	189.405	-223.800	962.502	196.166	-173.431	921.971	312.899	-279.740	811.873	201.300	-200.865	814.161	202.940	-207.960	706.373	204.490	-270.102	703.593	206.820	-306.786	526.627	263.737	-256.901	534.242	216.484	-209.472	542.326	305.482	-124.457	409.884	193.622	-95.901	426.017	267.314	-300.390	1705.271	378.723	-198.042	2022.975	390.941	-261.567	1874.869	479.053	-262.043	1875.410	298.209	-6.552	2230.150	384.815	87.094	2108.465	363.452	-25.320	2125.746	282.981	1.478	2129.253	477.217	-79.492	1996.289	562.526	-88.004	1812.593	655.505	-151.360	1911.357	715.167	-152.511	1808.927	738.928	-175.960	1752.145	773.209	-270.397	1761.883	713.716	-164.498	1669.847	661.445	-201.667	1635.311	782.559	-197.987	1581.105	693.920	-258.139	1553.266	601.046	-201.522	1507.837	661.048	-186.974	1516.265	603.239	-82.781	2030.020	226.230	-72.858	1836.118	140.048	-129.521	1910.678	48.512	-127.098	1808.247	55.462	-159.501	1739.176	2.927	-255.155	1766.505	56.008	-210.003	1705.648	121.122	-140.619	1653.939	35.000	-202.479	1605.479	100.034	-254.673	1541.702	161.301	-233.424	1485.921	91.820	-204.275	1505.701	139.856
